<?xml version="1.0" encoding="iso-8859-1"?>
<!-- Generator: Adobe Illustrator 19.0.0, SVG Export Plug-In . SVG Version: 6.00 Build 0)  -->
<svg version="1.1" id="Layer_1" xmlns="http://www.w3.org/2000/svg" xmlns:xlink="http://www.w3.org/1999/xlink" x="0px" y="0px"
	 viewBox="0 0 512.016 512.016" style="enable-background:new 0 0 512.016 512.016;" xml:space="preserve">
<g>
	<g>
		<g>
			<path d="M307.215,443.749v-42.667c0-3.448-2.074-6.562-5.265-7.885c-3.191-1.314-6.852-0.589-9.301,1.852l-17.067,17.067
				c-3.337,3.337-3.337,8.73,0,12.066c3.328,3.337,8.73,3.337,12.066,0l2.5-2.5v22.067c-4.719,0-8.533,3.823-8.533,8.533
				c0,4.71,3.814,8.533,8.533,8.533h17.067c4.71,0,8.533-3.823,8.533-8.533C315.749,447.572,311.926,443.749,307.215,443.749z"/>
			<path d="M76.815,170.683v-42.667c0-3.447-2.074-6.562-5.274-7.885c-3.191-1.323-6.852-0.589-9.293,1.852L45.182,139.05
				c-3.337,3.337-3.337,8.73,0,12.066c3.328,3.337,8.73,3.337,12.066,0l2.5-2.5v22.067c-4.719,0-8.533,3.823-8.533,8.533
				s3.814,8.533,8.533,8.533h17.067c4.71,0,8.533-3.823,8.533-8.533S81.526,170.683,76.815,170.683z"/>
			<path d="M484.086,95.316L229.332,2.576c-10.65-3.874-22.187-3.362-32.444,1.425c-10.274,4.787-18.065,13.286-21.82,23.62
				l-2.62,6.426l-41.421-7.1c-11.23-1.971-22.545,0.538-31.881,7.074c-9.344,6.536-15.573,16.324-17.536,27.486l-1.237,6.775H42.682
				c-23.526,0-42.667,19.14-42.667,42.667v358.4c0,23.526,19.14,42.667,42.667,42.667h273.067h8.533h8.533
				c23.236,0,45.969-3.388,54.921-27.955l121.711-334.379C517.434,127.709,506.059,103.321,484.086,95.316z M341.349,469.349
				c0,14.114-11.486,25.6-25.6,25.6H42.682c-14.123,0-25.6-11.486-25.6-25.6v-358.4c0-14.114,11.477-25.6,25.6-25.6h44.8
				c4.113,0,7.646-2.944,8.388-6.997l2.543-13.824c1.186-6.733,4.915-12.604,10.513-16.529c5.623-3.917,12.416-5.436,19.174-4.233
				l48.205,8.26c3.891,0.631,7.817-1.476,9.344-5.18l5.342-13.073c2.313-6.366,6.963-11.443,13.107-14.302
				c6.127-2.867,13.005-3.174,19.396-0.853l131.277,47.787L222.531,43.084c-4.651-0.819-9.071,2.278-9.882,6.921
				c-0.828,4.642,2.27,9.071,6.912,9.89l47.573,8.388H119.473c-4.719,0-8.533,3.823-8.533,8.533c0,4.71,3.814,8.533,8.533,8.533
				h196.275c14.114,0,25.6,11.486,25.6,25.6V469.349z M347.228,82.405l49.749,8.772c13.901,2.449,23.219,15.753,20.779,29.653
				l-59.341,336.555V110.949C358.415,99.941,354.106,89.983,347.228,82.405z M493.413,143.854l-121.02,332.467l62.165-352.529
				c1.954-11.102-0.691-21.922-6.417-30.686l50.116,18.244C491.382,116.129,498.183,130.713,493.413,143.854z"/>
			<path d="M222.07,245.853c-12.826-10.394-26.086-21.146-35.541-36.898c-3.081-5.137-11.546-5.137-14.635,0
				c-9.728,16.222-22.067,27.145-34.005,37.7c-18.244,16.145-35.473,31.394-35.473,60.561c0,23.526,19.14,42.667,42.667,42.667
				c11.443,0,19.439-3.004,25.6-7.842v24.909c0,4.71,3.814,8.533,8.533,8.533c4.71,0,8.533-3.823,8.533-8.533v-24.909
				c6.153,4.838,14.157,7.842,25.6,7.842c21.146,0,37.436-15.71,42.496-40.994C261.989,278.203,241.696,261.759,222.07,245.853z
				 M239.111,305.544c-1.28,6.4-6.921,27.273-25.762,27.273c-13.952,0-18.415-4.702-26.505-20.881
				c-0.401-0.794-0.913-1.485-1.519-2.091c-0.128-0.145-0.299-0.239-0.435-0.375c-0.606-0.538-1.254-0.973-1.971-1.323
				c-0.247-0.119-0.486-0.23-0.751-0.333c-0.939-0.35-1.92-0.597-2.953-0.597s-2.022,0.247-2.953,0.597
				c-0.265,0.102-0.512,0.213-0.759,0.333c-0.717,0.35-1.365,0.785-1.954,1.323c-0.154,0.137-0.316,0.23-0.452,0.375
				c-0.597,0.614-1.126,1.297-1.519,2.091c-8.09,16.179-12.553,20.881-26.496,20.881c-14.123,0-25.6-11.486-25.6-25.6
				c0-21.478,12.467-32.512,29.722-47.778c9.745-8.627,20.514-18.159,30.089-30.942c9.856,12.638,21.495,22.076,32.026,30.618
				C232.284,276.104,243.045,285.891,239.111,305.544z"/>
		</g>
	</g>
</g>
<g>
</g>
<g>
</g>
<g>
</g>
<g>
</g>
<g>
</g>
<g>
</g>
<g>
</g>
<g>
</g>
<g>
</g>
<g>
</g>
<g>
</g>
<g>
</g>
<g>
</g>
<g>
</g>
<g>
</g>
</svg>
